<svg width="202" height="303" viewBox="0 0 202 303" fill="none" xmlns="http://www.w3.org/2000/svg">
<g clip-path="url(#clip0)">
<path d="M50.5101 303C78.3805 303 101 280.376 101 252.5V202H50.5101C22.6397 202 0.0202103 224.624 0.0202103 252.5C0.0202103 280.376 22.6397 303 50.5101 303Z" fill="#0ACF83"/>
<path d="M0.0202103 151.5C0.0202103 123.624 22.6397 101 50.5101 101H101V202H50.5101C22.6397 202 0.0202103 179.376 0.0202103 151.5Z" fill="#A259FF"/>
<path d="M0.0236359 50.5C0.0236359 22.624 22.6431 0 50.5135 0H101.003V101H50.5135C22.6431 101 0.0236359 78.376 0.0236359 50.5Z" fill="#F24E1E"/>
<path d="M101 0H151.49C179.36 0 201.98 22.624 201.98 50.5C201.98 78.376 179.36 101 151.49 101H101V0Z" fill="#FF7262"/>
<path d="M201.98 151.5C201.98 179.376 179.36 202 151.49 202C123.619 202 101 179.376 101 151.5C101 123.624 123.619 101 151.49 101C179.36 101 201.98 123.624 201.98 151.5Z" fill="#1ABCFE"/>
</g>
<defs>
<clipPath id="clip0">
<rect width="202" height="303" fill="white"/>
</clipPath>
</defs>
</svg>
