<svg width="204" height="78" viewBox="0 0 204 78" fill="none" xmlns="http://www.w3.org/2000/svg">
<path d="M0 0H204V66.8571H102V78H56.6667V66.8571H0V0ZM11.3333 55.7143H34V22.2857H45.3333V55.7143H56.6667V11.1429H11.3333V55.7143ZM68 11.1429V66.8571H90.6667V55.7143H113.333V11.1429H68ZM90.6667 22.2857H102V44.5714H90.6667V22.2857ZM124.667 11.1429V55.7143H147.333V22.2857H158.667V55.7143H170V22.2857H181.333V55.7143H192.667V11.1429H124.667Z" fill="#CB3837"/>
<path d="M11.3333 55.7143H34V22.2857H45.3333V55.7143H56.6667V11.1429H11.3333V55.7143Z" fill="white"/>
<path d="M68 11.1429V66.8572H90.6667V55.7143H113.333V11.1429H68ZM102 44.5715H90.6667V22.2857H102V44.5715Z" fill="white"/>
<path d="M124.667 11.1429V55.7143H147.333V22.2857H158.667V55.7143H170V22.2857H181.333V55.7143H192.667V11.1429H124.667Z" fill="white"/>
</svg>
