<svg width="98" height="88" viewBox="0 0 98 88" fill="none" xmlns="http://www.w3.org/2000/svg">
<path d="M98 43.5973C98 37.1126 89.87 30.9671 77.4052 27.1561C80.2817 14.4659 79.0033 4.36971 73.3702 1.13732C72.0718 0.379107 70.5536 0.0199527 68.8956 0.0199527V4.46948C69.8145 4.46948 70.5536 4.64905 71.1729 4.98825C73.8895 6.54459 75.0681 12.4706 74.1492 20.0927C73.9295 21.9683 73.5699 23.9436 73.1305 25.9589C69.2152 25.0011 64.9405 24.2629 60.446 23.784C57.7493 20.0927 54.9527 16.7406 52.1362 13.8075C58.6482 7.76172 64.7607 4.44952 68.9156 4.44952V0C63.4223 0 56.2311 3.91079 48.9601 10.6948C41.689 3.9507 34.4978 0.0798124 29.0045 0.0798124V4.52933C33.1394 4.52933 39.2719 7.82158 45.7839 13.8274C42.9874 16.7605 40.1908 20.0927 37.534 23.784C33.0196 24.2629 28.7448 25.0011 24.8296 25.9788C24.3702 23.9835 24.0306 22.0481 23.7909 20.1925C22.852 12.5704 24.0106 6.64435 26.7073 5.06807C27.3066 4.70891 28.0856 4.54929 29.0045 4.54929V0.0997651C27.3265 0.0997651 25.8084 0.458919 24.49 1.21713C18.8769 4.44952 17.6184 14.5258 20.5149 27.176C8.09009 31.007 0 37.1326 0 43.5973C0 50.0821 8.13004 56.2276 20.5948 60.0386C17.7183 72.7287 18.9967 82.825 24.6298 86.0574C25.9283 86.8156 27.4464 87.1747 29.1243 87.1747C34.6176 87.1747 41.8088 83.2639 49.0799 76.4799C56.351 83.224 63.5422 87.0949 69.0355 87.0949C70.7134 87.0949 72.2316 86.7358 73.5499 85.9775C79.1631 82.7452 80.4215 72.6689 77.5251 60.0187C89.9099 56.2076 98 50.0621 98 43.5973ZM71.9918 30.2887C71.2527 32.8626 70.3339 35.5164 69.2951 38.1701C68.4761 36.5739 67.6172 34.9776 66.6784 33.3814C65.7595 31.7852 64.7807 30.2288 63.8019 28.7124C66.6384 29.1314 69.375 29.6502 71.9918 30.2887ZM62.843 51.5386C61.285 54.2323 59.6869 56.7863 58.0289 59.1607C55.0526 59.4201 52.0363 59.5598 49 59.5598C45.9837 59.5598 42.9674 59.4201 40.011 59.1806C38.353 56.8062 36.735 54.2722 35.1769 51.5985C33.6588 48.9847 32.2805 46.3309 31.022 43.6572C32.2605 40.9835 33.6588 38.3098 35.157 35.6959C36.715 33.0023 38.3131 30.4483 39.9711 28.0739C42.9474 27.8145 45.9637 27.6748 49 27.6748C52.0163 27.6748 55.0326 27.8145 57.989 28.0539C59.647 30.4283 61.265 32.9624 62.8231 35.6361C64.3412 38.2499 65.7195 40.9037 66.978 43.5774C65.7195 46.2511 64.3412 48.9248 62.843 51.5386ZM69.2951 48.9447C70.3738 51.6184 71.2927 54.2922 72.0518 56.886C69.435 57.5245 66.6784 58.0633 63.8219 58.4823C64.8007 56.9459 65.7795 55.3696 66.6983 53.7534C67.6172 52.1572 68.4761 50.541 69.2951 48.9447ZM49.04 70.2346C47.1822 68.3191 45.3245 66.1842 43.4868 63.8496C45.2846 63.9295 47.1223 63.9893 48.98 63.9893C50.8577 63.9893 52.7155 63.9494 54.5332 63.8496C52.7354 66.1842 50.8777 68.3191 49.04 70.2346ZM34.1781 58.4823C31.3416 58.0633 28.605 57.5445 25.9882 56.906C26.7273 54.3321 27.6461 51.6783 28.6849 49.0246C29.5039 50.6208 30.3628 52.217 31.3017 53.8133C32.2405 55.4095 33.1993 56.9659 34.1781 58.4823ZM48.9401 16.9601C50.7978 18.8756 52.6555 21.0105 54.4933 23.345C52.6955 23.2652 50.8577 23.2054 49 23.2054C47.1223 23.2054 45.2646 23.2453 43.4468 23.345C45.2446 21.0105 47.1023 18.8756 48.9401 16.9601ZM34.1582 28.7124C33.1794 30.2488 32.2006 31.8251 31.2817 33.4413C30.3628 35.0375 29.5039 36.6337 28.6849 38.23C27.6062 35.5563 26.6873 32.8826 25.9283 30.2887C28.545 29.6701 31.3017 29.1314 34.1582 28.7124ZM16.0803 53.6936C9.00897 50.6807 4.43457 46.73 4.43457 43.5973C4.43457 40.4647 9.00897 36.4941 16.0803 33.5011C17.7982 32.7629 19.6759 32.1044 21.6135 31.4859C22.7521 35.3967 24.2503 39.4671 26.108 43.6372C24.2703 47.7875 22.7921 51.8379 21.6735 55.7288C19.6959 55.1102 17.8182 54.4318 16.0803 53.6936ZM26.8272 82.2064C24.1105 80.6501 22.9319 74.724 23.8508 67.102C24.0705 65.2264 24.4301 63.2511 24.8696 61.2358C28.7848 62.1935 33.0595 62.9318 37.554 63.4107C40.2507 67.102 43.0473 70.4541 45.8638 73.3872C39.3518 79.433 33.2393 82.7452 29.0844 82.7452C28.1855 82.7252 27.4264 82.5456 26.8272 82.2064ZM74.2091 67.0022C75.148 74.6243 73.9894 80.5503 71.2927 82.1266C70.6934 82.4858 69.9144 82.6454 68.9955 82.6454C64.8606 82.6454 58.7281 79.3531 52.2161 73.3473C55.0126 70.4142 57.8092 67.082 60.466 63.3907C64.9804 62.9119 69.2552 62.1736 73.1704 61.1959C73.6298 63.2112 73.9894 65.1466 74.2091 67.0022ZM81.8997 53.6936C80.1818 54.4318 78.3041 55.0903 76.3665 55.7088C75.2279 51.798 73.7297 47.7276 71.872 43.5574C73.7097 39.4072 75.1879 35.3567 76.3066 31.4659C78.2841 32.0844 80.1618 32.7629 81.9197 33.5011C88.991 36.514 93.5654 40.4647 93.5654 43.5973C93.5455 46.73 88.9711 50.7006 81.8997 53.6936Z" fill="#61DAFB"/>
<path d="M48.98 52.7158C54.0217 52.7158 58.1088 48.6333 58.1088 43.5973C58.1088 38.5613 54.0217 34.4788 48.98 34.4788C43.9383 34.4788 39.8512 38.5613 39.8512 43.5973C39.8512 48.6333 43.9383 52.7158 48.98 52.7158Z" fill="#61DAFB"/>
</svg>
