<svg width="66" height="66" viewBox="0 0 66 66" fill="none" xmlns="http://www.w3.org/2000/svg">
<path d="M66 32.151C66 49.9062 51.4945 64.2998 33.5972 64.2998C27.9177 64.2998 22.5825 62.8471 17.9382 60.3033L0 66L5.84739 48.7462C2.89895 43.9039 1.2009 38.2179 1.2009 32.1488C1.20305 14.3936 15.7042 0 33.6015 0C51.4967 0.0043043 66 14.3957 66 32.151ZM33.5951 5.12642C18.5752 5.12642 6.35745 17.2516 6.35745 32.1574C6.35745 38.0715 8.28578 43.5466 11.5463 48.0016L8.14589 58.037L18.6096 54.712C22.9139 57.5356 28.064 59.1798 33.5951 59.1798C48.6149 59.1798 60.837 47.0568 60.837 32.151C60.8413 17.2516 48.6171 5.12642 33.5951 5.12642ZM49.96 39.5565C49.7577 39.2316 49.2283 39.0336 48.4363 38.6376C47.6465 38.2416 43.736 36.3369 43.0107 36.0787C42.279 35.8139 41.7496 35.6805 41.2201 36.4703C40.6972 37.2602 39.1734 39.0336 38.7064 39.563C38.2437 40.0903 37.781 40.157 36.9869 39.7674C36.1927 39.3671 33.6317 38.5407 30.5971 35.857C28.2362 33.7651 26.6415 31.189 26.1809 30.3991C25.7139 29.6114 26.1336 29.1853 26.5274 28.7936C26.8825 28.4385 27.3216 27.8725 27.7197 27.4098C28.1178 26.9514 28.2491 26.6264 28.5138 26.0991C28.7743 25.5719 28.643 25.1134 28.4471 24.7153C28.2491 24.3193 26.663 20.4454 25.998 18.8679C25.3373 17.2925 24.6766 17.5529 24.2117 17.5529C23.749 17.5529 23.2196 17.4884 22.6901 17.4884C22.1607 17.4884 21.2998 17.6799 20.5746 18.4698C19.8493 19.2596 17.7961 21.1642 17.7961 25.0424C17.7961 28.9249 20.6391 32.6675 21.0373 33.1926C21.4376 33.7156 26.5339 41.9347 34.6066 45.0897C42.6836 48.2426 42.6836 47.1902 44.1385 47.0568C45.5976 46.9233 48.8388 45.1521 49.4973 43.3142C50.1602 41.4676 50.1602 39.8858 49.96 39.5565Z" fill="black"/>
</svg>
