<svg width="40" height="40" viewBox="0 0 40 40" fill="none" xmlns="http://www.w3.org/2000/svg">
<path d="M33.5 30.8305H2.50002C1.1193 30.8305 0 31.9498 0 33.3305C0 34.7113 1.1193 35.8305 2.50002 35.8305H33.5C34.8807 35.8305 36 34.7113 36 33.3305C36 31.9498 34.8807 30.8305 33.5 30.8305Z" fill="white"/>
<path d="M33.5 17.5H2.50002C1.1193 17.5 0 18.6193 0 20C0 21.3807 1.1193 22.5 2.50002 22.5H33.5C34.8807 22.5 36 21.3807 36 20C36 18.6193 34.8807 17.5 33.5 17.5Z" fill="white"/>
<path d="M33.5 4.21182H2.50002C1.1193 4.21182 0 5.33112 0 6.71184C0 8.09257 1.1193 9.21187 2.50002 9.21187H33.5C34.8807 9.21187 36 8.09257 36 6.71184C36 5.33112 34.8807 4.21182 33.5 4.21182Z" fill="white"/>
</svg>
