<svg width="798" height="524" viewBox="0 0 798 524" fill="none" xmlns="http://www.w3.org/2000/svg">
<g opacity="0.302083">
<path fill-rule="evenodd" clip-rule="evenodd" d="M35.0701 143.729C53.3343 143.729 68.1403 128.923 68.1403 110.659C68.1403 92.3949 53.3343 77.5889 35.0701 77.5889C16.806 77.5889 2 92.3949 2 110.659C2 128.923 16.806 143.729 35.0701 143.729Z" stroke="#0B003D" stroke-opacity="0.3" stroke-width="3"/>
<path fill-rule="evenodd" clip-rule="evenodd" d="M633.482 68.1403C651.746 68.1403 666.552 53.3343 666.552 35.0701C666.552 16.806 651.746 2 633.482 2C615.218 2 600.412 16.806 600.412 35.0701C600.412 53.3343 615.218 68.1403 633.482 68.1403Z" stroke="#0B003D" stroke-opacity="0.3" stroke-width="3"/>
<path fill-rule="evenodd" clip-rule="evenodd" d="M479.155 326.402C497.419 326.402 512.225 311.596 512.225 293.332C512.225 275.068 497.419 260.262 479.155 260.262C460.891 260.262 446.085 275.068 446.085 293.332C446.085 311.596 460.891 326.402 479.155 326.402Z" stroke="#0B003D" stroke-opacity="0.3" stroke-width="3"/>
<path fill-rule="evenodd" clip-rule="evenodd" d="M313.999 114.979C314.067 115.313 314.242 115.615 314.497 115.841C315.148 116.419 316.143 116.359 316.72 115.708L357.67 69.5285C357.832 69.3455 357.949 69.1274 358.013 68.8912C358.238 68.0511 357.739 67.1876 356.899 66.9625L303.575 52.6745C303.339 52.6113 303.092 52.6038 302.852 52.6528C302 52.8272 301.451 53.6593 301.625 54.5113L313.999 114.979Z" stroke="#0B003D" stroke-opacity="0.3" stroke-width="3"/>
<path fill-rule="evenodd" clip-rule="evenodd" d="M380.349 443.13C380.015 443.198 379.712 443.373 379.486 443.628C378.909 444.278 378.969 445.274 379.62 445.851L425.799 486.801C425.982 486.963 426.2 487.08 426.437 487.143C427.277 487.369 428.14 486.87 428.365 486.03L442.653 432.706C442.717 432.47 442.724 432.223 442.675 431.983C442.501 431.131 441.669 430.582 440.816 430.756L380.349 443.13Z" stroke="#0B003D" stroke-opacity="0.3" stroke-width="3"/>
<path fill-rule="evenodd" clip-rule="evenodd" d="M53.6621 375.626C53.322 375.605 52.9844 375.696 52.7001 375.884C51.9743 376.363 51.7744 377.34 52.2536 378.065L86.2611 429.572C86.3958 429.776 86.5761 429.946 86.7878 430.068C87.541 430.503 88.5041 430.245 88.939 429.492L116.541 381.683C116.664 381.471 116.735 381.234 116.749 380.99C116.802 380.122 116.14 379.376 115.272 379.324L53.6621 375.626Z" stroke="#0B003D" stroke-opacity="0.3" stroke-width="3"/>
<path fill-rule="evenodd" clip-rule="evenodd" d="M719.116 133.422C719.224 133.099 719.224 132.75 719.116 132.426C718.841 131.601 717.949 131.155 717.124 131.431L658.571 150.948C658.339 151.026 658.128 151.156 657.955 151.329C657.34 151.944 657.34 152.941 657.955 153.556L696.991 192.591C697.164 192.764 697.374 192.895 697.606 192.972C698.431 193.247 699.323 192.801 699.598 191.976L719.116 133.422Z" stroke="#0B003D" stroke-opacity="0.3" stroke-width="3"/>
<path fill-rule="evenodd" clip-rule="evenodd" d="M137.741 215.264C136.785 214.712 136.457 213.489 137.009 212.532L183.827 131.441C184.379 130.485 185.602 130.157 186.559 130.709L224.008 152.331C224.965 152.883 225.293 154.106 224.741 155.063L177.923 236.154C177.37 237.11 176.147 237.438 175.191 236.886L137.741 215.264Z" stroke="#0B003D" stroke-opacity="0.3" stroke-width="3"/>
<path fill-rule="evenodd" clip-rule="evenodd" d="M707.807 423.134C706.851 422.581 706.523 421.358 707.075 420.402L753.893 339.311C754.445 338.354 755.668 338.026 756.625 338.579L794.075 360.2C795.031 360.753 795.359 361.976 794.807 362.932L747.989 444.023C747.437 444.98 746.213 445.307 745.257 444.755L707.807 423.134Z" stroke="#0B003D" stroke-opacity="0.3" stroke-width="3"/>
<path fill-rule="evenodd" clip-rule="evenodd" d="M514.111 186.493C513.154 187.045 511.931 186.718 511.379 185.761L464.561 104.67C464.009 103.714 464.336 102.491 465.293 101.938L502.743 80.3167C503.699 79.7644 504.922 80.0922 505.475 81.0488L552.292 162.14C552.845 163.096 552.517 164.319 551.56 164.872L514.111 186.493Z" stroke="#0B003D" stroke-opacity="0.3" stroke-width="3"/>
<path fill-rule="evenodd" clip-rule="evenodd" d="M307.19 365.886C306.409 366.667 305.142 366.667 304.361 365.886L238.151 299.676C237.37 298.895 237.37 297.629 238.151 296.848L268.728 266.27C269.509 265.489 270.776 265.489 271.557 266.27L337.767 332.48C338.548 333.261 338.548 334.528 337.767 335.309L307.19 365.886Z" stroke="#0B003D" stroke-opacity="0.3" stroke-width="3"/>
<path d="M384.669 208.295C395.105 208.295 403.566 199.834 403.566 189.397C403.566 178.961 395.105 170.5 384.669 170.5C374.232 170.5 365.771 178.961 365.771 189.397C365.771 199.834 374.232 208.295 384.669 208.295Z" fill="#0B003D" fill-opacity="0.3"/>
<path d="M76.0141 296.482C86.4507 296.482 94.9113 288.021 94.9113 277.584C94.9113 267.148 86.4507 258.687 76.0141 258.687C65.5775 258.687 57.1169 267.148 57.1169 277.584C57.1169 288.021 65.5775 296.482 76.0141 296.482Z" fill="#0B003D" fill-opacity="0.3"/>
<path d="M206.012 519.981C205.449 521.242 206.015 522.72 207.275 523.283C208.536 523.846 210.015 523.28 210.577 522.019L206.012 519.981ZM246.136 442.38C246.699 441.119 246.133 439.641 244.872 439.078C243.611 438.515 242.133 439.08 241.57 440.341L246.136 442.38ZM558.76 466.439C558.197 467.7 558.763 469.178 560.023 469.741C561.284 470.304 562.763 469.738 563.326 468.477L558.76 466.439ZM598.884 388.838C599.447 387.577 598.881 386.098 597.62 385.536C596.359 384.973 594.881 385.538 594.318 386.799L598.884 388.838ZM210.577 522.019L246.136 442.38L241.57 440.341L206.012 519.981L210.577 522.019ZM563.326 468.477L598.884 388.838L594.318 386.799L558.76 466.439L563.326 468.477Z" fill="#0B003D" fill-opacity="0.3"/>
<path d="M170.5 50.6683C170.5 49.0114 171.843 47.6683 173.5 47.6683H205.295C206.952 47.6683 208.295 49.0114 208.295 50.6683V82.4627C208.295 84.1196 206.952 85.4627 205.295 85.4627H173.5C171.843 85.4627 170.5 84.1196 170.5 82.4627V50.6683Z" fill="#0B003D" fill-opacity="0.3"/>
<path d="M636.632 280.584C636.632 278.928 637.975 277.584 639.632 277.584H671.426C673.083 277.584 674.426 278.928 674.426 280.584V312.379C674.426 314.036 673.083 315.379 671.426 315.379H639.632C637.975 315.379 636.632 314.036 636.632 312.379V280.584Z" fill="#0B003D" fill-opacity="0.3"/>
</g>
</svg>
